<mxfile host="app.diagrams.net">
  <diagram name="Store Management Service - Container Diagram">
    <mxGraphModel dx="1482" dy="1255" grid="1" gridSize="10" guides="1" tooltips="1" connect="1" arrows="1" fold="1" page="1" pageScale="1" pageWidth="850" pageHeight="1100" math="0" shadow="0">
      <root>
        <mxCell id="0" />
        <mxCell id="1" parent="0" />

        <!-- Store Management Service Container -->
        <mxCell id="store-management-service" value="Store Management Service" style="rounded=0;whiteSpace=wrap;html=1;fillColor=#F5F5F5;strokeColor=#000000;" vertex="1" parent="1">
          <mxGeometry x="180" y="20" width="600" height="700" as="geometry" />
        </mxCell>

        <!-- Store API -->
        <mxCell id="store-api" value="Store API" style="rounded=0;whiteSpace=wrap;html=1;fillColor=#BBDEFB;" vertex="1" parent="store-management-service">
          <mxGeometry x="20" y="50" width="160" height="80" as="geometry" />
        </mxCell>

        <!-- Tenant Manager -->
        <mxCell id="tenant-manager" value="Tenant Manager" style="rounded=0;whiteSpace=wrap;html=1;fillColor=#C8E6C9;" vertex="1" parent="store-management-service">
          <mxGeometry x="220" y="50" width="160" height="80" as="geometry" />
        </mxCell>

        <!-- Store Settings Service -->
        <mxCell id="store-settings-service" value="Store Settings Service" style="rounded=0;whiteSpace=wrap;html=1;fillColor=#C8E6C9;" vertex="1" parent="store-management-service">
          <mxGeometry x="420" y="50" width="160" height="80" as="geometry" />
        </mxCell>

        <!-- Store Permissions Service -->
        <mxCell id="store-permissions-service" value="Store Permissions Service" style="rounded=0;whiteSpace=wrap;html=1;fillColor=#C8E6C9;" vertex="1" parent="store-management-service">
          <mxGeometry x="20" y="180" width="160" height="80" as="geometry" />
        </mxCell>

        <!-- Store Themes Service -->
        <mxCell id="store-themes-service" value="Store Themes Service" style="rounded=0;whiteSpace=wrap;html=1;fillColor=#C8E6C9;" vertex="1" parent="store-management-service">
          <mxGeometry x="220" y="180" width="160" height="80" as="geometry" />
        </mxCell>

        <!-- Connectors (Edges) -->
        <mxCell id="edge1" style="edgeStyle=orthogonalEdgeStyle;rounded=0;orthogonalLoop=1;jettySize=auto;html=1;" edge="1" parent="1" source="store-api" target="tenant-manager">
          <mxGeometry relative="1" as="geometry" />
        </mxCell>
        <mxCell id="edge2" style="edgeStyle=orthogonalEdgeStyle;rounded=0;orthogonalLoop=1;jettySize=auto;html=1;" edge="1" parent="1" source="store-api" target="store-settings-service">
          <mxGeometry relative="1" as="geometry" />
        </mxCell>
        <mxCell id="edge3" style="edgeStyle=orthogonalEdgeStyle;rounded=0;orthogonalLoop=1;jettySize=auto;html=1;" edge="1" parent="1" source="store-api" target="store-permissions-service">
          <mxGeometry relative="1" as="geometry" />
        </mxCell>
        <mxCell id="edge4" style="edgeStyle=orthogonalEdgeStyle;rounded=0;orthogonalLoop=1;jettySize=auto;html=1;" edge="1" parent="1" source="store-api" target="store-themes-service">
          <mxGeometry relative="1" as="geometry" />
        </mxCell>
      </root>
    </mxGraphModel>
  </diagram>
</mxfile>
